<svg width="22" height="25" viewBox="0 0 22 25" fill="none" xmlns="http://www.w3.org/2000/svg">
<path d="M3.5 3.5H18.5C19.163 3.5 19.7989 3.76339 20.2678 4.23223C20.7366 4.70107 21 5.33696 21 6V21C21 21.663 20.7366 22.2989 20.2678 22.7678C19.7989 23.2366 19.163 23.5 18.5 23.5H3.5C2.83696 23.5 2.20107 23.2366 1.73223 22.7678C1.26339 22.2989 1 21.663 1 21V6C1 5.33696 1.26339 4.70107 1.73223 4.23223C2.20107 3.76339 2.83696 3.5 3.5 3.5Z" stroke="black" stroke-width="2" stroke-linecap="round" stroke-linejoin="round"/>
<path d="M7.25 17.25C8.5 18.0833 9.75 18.5 11 18.5C12.875 18.5 13.5 18.0837 14.75 17.25M7.25 6L6 1M14.75 6L16 1M7.25 12.25V11M14.75 12.25V11" stroke="black" stroke-width="2" stroke-linecap="round" stroke-linejoin="round"/>
</svg>
